<?xml version="1.0" encoding="utf-8"?>
<!-- Generator: Adobe Illustrator 16.0.0, SVG Export Plug-In . SVG Version: 6.00 Build 0)  -->
<!DOCTYPE svg PUBLIC "-//W3C//DTD SVG 1.1//EN" "http://www.w3.org/Graphics/SVG/1.1/DTD/svg11.dtd">
<svg version="1.1" id="Calque_1" xmlns="http://www.w3.org/2000/svg" xmlns:xlink="http://www.w3.org/1999/xlink" x="0px" y="0px"
	 width="16px" height="12px" viewBox="0 0 16 12" enable-background="new 0 0 16 12" xml:space="preserve">
<g>
	<g>
		<path fill="#289EE2" d="M8,8.396L6.021,6.577l-5.659,5.094c0.205,0.202,0.483,0.326,0.789,0.326H14.85
			c0.305,0,0.581-0.124,0.786-0.326L9.979,6.577L8,8.396z M15.639,0.322c-0.206-0.202-0.482-0.326-0.789-0.326H1.15
			c-0.305,0-0.581,0.125-0.787,0.328L8,7.196L15.639,0.322z M0,1.05v9.969l5.523-4.927L0,1.05z M10.477,6.092L16,11.02V1.047
			L10.477,6.092z"/>
	</g>
</g>
</svg>
