<?xml version="1.0" encoding="utf-8"?>
<!-- Generator: Adobe Illustrator 16.0.0, SVG Export Plug-In . SVG Version: 6.00 Build 0)  -->
<!DOCTYPE svg PUBLIC "-//W3C//DTD SVG 1.1//EN" "http://www.w3.org/Graphics/SVG/1.1/DTD/svg11.dtd">
<svg version="1.1" id="Calque_1" xmlns="http://www.w3.org/2000/svg" xmlns:xlink="http://www.w3.org/1999/xlink" x="0px" y="0px"
	 width="30px" height="30px" viewBox="0 0 30 30" enable-background="new 0 0 30 30" xml:space="preserve">
<g>
	<g>
		<path fill="#289EE2" d="M15,0C6.716,0,0,6.715,0,15c0,8.286,6.716,15,15,15s15-6.715,15-15C30,6.715,23.284,0,15,0z M14.809,8.245
			c1.541-0.017,2.799,1.229,2.816,2.78c0.016,1.553-1.215,2.826-2.754,2.844c-1.533,0.017-2.796-1.228-2.813-2.781
			C12.041,9.535,13.277,8.263,14.809,8.245z M7.495,14.494c-0.014-1.298,1.017-2.358,2.301-2.374
			c1.281-0.014,2.335,1.023,2.35,2.323c0.016,1.296-1.019,2.358-2.299,2.372C8.563,16.828,7.509,15.789,7.495,14.494z
			 M15.184,21.748c-2.316,0.025-4.202-0.582-4.22-2.434c-0.022-1.848,1.829-4.467,4.144-4.491c2.316-0.027,4.222,2.55,4.242,4.397
			C19.371,21.07,17.502,21.723,15.184,21.748z M20.203,16.156c-1.279,0.014-2.334-1.028-2.35-2.322
			c-0.014-1.297,1.018-2.356,2.3-2.372c1.284-0.015,2.335,1.024,2.349,2.321C22.517,15.078,21.49,16.141,20.203,16.156z"/>
	</g>
</g>
</svg>
