<?xml version="1.0" encoding="utf-8"?>
<!-- Generator: Adobe Illustrator 16.0.0, SVG Export Plug-In . SVG Version: 6.00 Build 0)  -->
<!DOCTYPE svg PUBLIC "-//W3C//DTD SVG 1.1//EN" "http://www.w3.org/Graphics/SVG/1.1/DTD/svg11.dtd">
<svg version="1.1" id="Calque_1" xmlns="http://www.w3.org/2000/svg" xmlns:xlink="http://www.w3.org/1999/xlink" x="0px" y="0px"
	 width="12px" height="20px" viewBox="0 0 12 20" enable-background="new 0 0 12 20" xml:space="preserve">
<path fill="#289EE2" d="M10.285,0H1.713C0.767,0,0,0.757,0,1.692v16.616C0,19.242,0.767,20,1.713,20h8.572
	C11.23,20,12,19.242,12,18.309V1.692C12,0.757,11.23,0,10.285,0z M6,17.992c-0.563,0-1.016-0.451-1.016-1.004S5.437,15.986,6,15.986
	c0.562,0,1.016,0.449,1.016,1.002S6.561,17.992,6,17.992z M11.004,14.014H0.994V2.007h10.01V14.014z"/>
</svg>
