<?xml version="1.0" encoding="utf-8"?>
<!-- Generator: Adobe Illustrator 16.0.0, SVG Export Plug-In . SVG Version: 6.00 Build 0)  -->
<!DOCTYPE svg PUBLIC "-//W3C//DTD SVG 1.1//EN" "http://www.w3.org/Graphics/SVG/1.1/DTD/svg11.dtd">
<svg version="1.1" id="Calque_1" xmlns="http://www.w3.org/2000/svg" xmlns:xlink="http://www.w3.org/1999/xlink" x="0px" y="0px"
	 width="16px" height="20px" viewBox="0 0 16 20" enable-background="new 0 0 16 20" xml:space="preserve">
<g>
	<g>
		<path fill="#FFFFFF" d="M15.816,13.102c-0.001-0.001-0.001-0.002-0.001-0.003l-3.069-6.2c0,0-0.001,0-0.001,0l-1.633-3.309
			l1.155-0.536c0.11-0.051,0.19-0.139,0.231-0.251c0.039-0.111,0.029-0.229-0.021-0.334l-0.703-1.422
			c-0.001-0.001-0.001-0.002-0.001-0.002C11.462,0.409,10.787,0,10.059,0c-0.286,0-0.563,0.061-0.82,0.181L1.079,3.965
			c-0.001,0-0.002,0.001-0.002,0.001C0.134,4.405-0.266,5.503,0.186,6.419l2.539,5.127h0.001c0,0.001,0,0.001,0,0.001l2.165,4.38
			l-2.193,1.017c-0.112,0.047-0.198,0.138-0.237,0.253c-0.04,0.109-0.032,0.229,0.021,0.333l0.706,1.426h0.001
			c0.215,0.443,0.598,0.777,1.079,0.939C4.475,19.967,4.687,20,4.897,20c0.287,0,0.565-0.063,0.823-0.185l9.202-4.263
			C15.863,15.112,16.265,14.015,15.816,13.102z M9.634,0.973c0.479-0.225,1.095-0.011,1.323,0.451l0.508,1.027L10.31,2.984
			c-0.001,0-0.002,0-0.002,0.001c0,0,0,0.001,0,0.002L4.118,5.855L3.611,4.831c0,0,0,0,0,0C3.458,4.52,3.218,4.265,2.928,4.085
			L9.634,0.973z M5.831,18.482c-0.086,0.238-0.263,0.433-0.503,0.543c-0.237,0.107-0.51,0.125-0.756,0.042
			c-0.251-0.087-0.451-0.261-0.566-0.488c-0.001-0.001,0-0.001-0.001-0.002l-0.508-1.03l1.786-0.829l0.508,1.028
			C5.904,17.979,5.919,18.238,5.831,18.482z M14.527,14.756L6.783,18.35c0.036-0.332-0.017-0.668-0.172-0.979l-3.066-6.203
			c0-0.001-0.001-0.001-0.001-0.002L1.009,6.04C0.774,5.562,0.979,4.986,1.474,4.76c0.479-0.223,1.088-0.009,1.317,0.45l0.705,1.426
			C3.547,6.742,3.64,6.821,3.757,6.86c0.047,0.016,0.097,0.024,0.147,0.024c0.066,0,0.133-0.014,0.198-0.043l6.189-2.871l1.64,3.307
			c0,0,0,0,0,0.001l3.064,6.207C15.228,13.956,15.02,14.53,14.527,14.756z M10.246,7.189c-0.107-0.211-0.396-0.307-0.61-0.206
			L4.807,9.224c-0.229,0.105-0.325,0.37-0.216,0.59c0.075,0.152,0.236,0.249,0.41,0.249c0.069,0,0.137-0.017,0.197-0.046
			l4.829-2.239C10.254,7.671,10.351,7.409,10.246,7.189z M11.171,9.067c-0.107-0.212-0.385-0.308-0.605-0.207l-4.834,2.243
			c-0.109,0.048-0.192,0.137-0.232,0.25c-0.04,0.109-0.032,0.23,0.019,0.336C5.6,11.846,5.756,11.94,5.929,11.94
			c0.065,0,0.134-0.017,0.197-0.045l4.833-2.242C11.184,9.547,11.281,9.284,11.171,9.067z M11.49,10.737l-4.829,2.242
			c-0.109,0.052-0.192,0.138-0.233,0.252c-0.039,0.108-0.032,0.229,0.021,0.334c0.073,0.153,0.233,0.253,0.409,0.253
			c0.068,0,0.137-0.019,0.195-0.044l4.832-2.241c0.109-0.055,0.191-0.143,0.233-0.253c0.04-0.114,0.037-0.233-0.019-0.335
			C11.996,10.732,11.712,10.634,11.49,10.737z"/>
	</g>
</g>
</svg>
